<svg width="1920" height="2461" viewBox="0 0 1920 2461" fill="none" xmlns="http://www.w3.org/2000/svg">
<g clip-path="url(#clip0_22_6)">
<rect width="1920" height="2461" fill="white"/>
<circle cx="324" r="189" fill="#FAAE62"/>
<rect x="-234" y="1185.23" width="450.042" height="10" transform="rotate(-45 -234 1185.23)" fill="#FAAE62"/>
<circle cx="108" cy="1036" r="25" fill="white"/>
<rect x="2133.26" y="207.302" width="478" height="166.731" rx="83.3656" transform="rotate(135 2133.26 207.302)" fill="#475184"/>
<rect x="2015.26" y="-13.6984" width="478" height="140.376" rx="70.188" transform="rotate(135 2015.26 -13.6984)" fill="#475184"/>
<rect x="1750.26" y="-13.6984" width="478" height="140.376" rx="70.188" transform="rotate(135 1750.26 -13.6984)" fill="#475184"/>
<path d="M1815.26 181.299C1858.98 141.183 1914.26 191.299 1870.76 236.799L1868.18 239.377L1774.76 332.799L1815.26 363.299L1919.26 258.299L2096.76 128.299L1870.76 -6.20131L1653.26 211.299L1719.26 277.299C1722.09 256.799 1760.76 231.299 1815.26 181.299Z" fill="#475184"/>
<path d="M1656.76 80.2987C1700.48 40.183 1755.76 90.2987 1712.26 135.799L1709.68 138.377L1616.26 231.799L1656.76 262.299L1760.76 157.299L1938.26 27.2987L1712.26 -107.201L1494.76 110.299L1560.76 176.299C1563.59 155.799 1602.26 130.299 1656.76 80.2987Z" fill="#475184"/>
<rect x="2108.31" y="67.5355" width="450.042" height="10" transform="rotate(135 2108.31 67.5355)" fill="#FAAE62"/>
<rect x="1741.26" y="-148.929" width="450.042" height="10" transform="rotate(135 1741.26 -148.929)" fill="#FAAE62"/>
<circle cx="1414.76" cy="219.799" r="37.5" transform="rotate(-180 1414.76 219.799)" fill="white"/>
<circle cx="1787.5" cy="106.5" r="37.5" transform="rotate(-180 1787.5 106.5)" fill="white"/>
<g clip-path="url(#clip1_22_6)">
<path d="M381.052 1267.05L160.951 1046.95C128.395 1014.39 75.6109 1014.39 43.0546 1046.95C10.4984 1079.5 10.4984 1132.29 43.0547 1164.84L263.155 1384.95C295.711 1417.5 348.495 1417.5 381.052 1384.95C413.608 1352.39 413.608 1299.6 381.052 1267.05Z" fill="#475184"/>
<path d="M169.37 1394.37L-69.3667 1155.63C-96.7768 1128.22 -141.217 1128.22 -168.627 1155.63C-196.038 1183.04 -196.038 1227.48 -168.627 1254.89L70.1087 1493.63C97.5188 1521.04 141.959 1521.04 169.37 1493.63C196.78 1466.22 196.78 1421.78 169.37 1394.37Z" fill="#475184"/>
<path d="M169.37 1659.37L-69.3667 1420.63C-96.7768 1393.22 -141.217 1393.22 -168.627 1420.63C-196.038 1448.04 -196.038 1492.48 -168.627 1519.89L70.1087 1758.63C97.5188 1786.04 141.959 1786.04 169.37 1758.63C196.78 1731.22 196.78 1686.78 169.37 1659.37Z" fill="#475184"/>
<path d="M76 1306C35.884 1262.27 86 1207 131.5 1250.5L134.078 1253.08L227.5 1346.5L258 1306L153 1202L23 1024.5L-111.5 1250.5L106 1468L172 1402C151.5 1399.17 126 1360.5 76 1306Z" fill="#475184"/>
<path d="M-25 1464.5C-65.116 1420.77 -15 1365.5 30.5 1409L33.078 1411.58L126.5 1505L157 1464.5L52 1360.5L-78 1183L-212.5 1409L4.99998 1626.5L71 1560.5C50.5 1557.67 25 1519 -25 1464.5Z" fill="#475184"/>
<path d="M283.465 1331.18L-34.7632 1012.95L-42.0229 1020.21L276.205 1338.44L283.465 1331.18Z" fill="#FAAE62"/>
<path d="M63.9997 1698.23L-254.228 1380L-261.299 1387.07L56.9286 1705.3L63.9997 1698.23Z" fill="#FAAE62"/>
<path d="M291.116 1570.79L-174.999 1104.68C-184.762 1094.91 -200.591 1094.91 -210.354 1104.68C-220.118 1114.44 -220.118 1130.27 -210.354 1140.03L255.761 1606.15C265.524 1615.91 281.353 1615.91 291.116 1606.15C300.88 1596.39 300.88 1580.56 291.116 1570.79Z" fill="#FAAE62"/>
<path d="M77 1706.5C77 1727.21 93.7893 1744 114.5 1744C135.211 1744 152 1727.21 152 1706.5C152 1685.79 135.211 1669 114.5 1669C93.7893 1669 77 1685.79 77 1706.5Z" fill="white"/>
<path d="M19 1216C19 1229.81 30.1929 1241 44 1241C57.8071 1241 69 1229.81 69 1216C69 1202.19 57.8071 1191 44 1191C30.1929 1191 19 1202.19 19 1216Z" fill="white"/>
<path d="M148.459 2075.54C181.259 1839.54 -21.8741 1683.21 -127.541 1634.54C-121.208 1593.21 -166.941 1543.54 -400.541 1675.54C-634.14 1807.54 -364.541 2047.87 -200.541 2151.54C-97.8742 2224.54 115.659 2311.54 148.459 2075.54Z" fill="#FAAE62"/>
</g>
<rect x="-120" y="977.997" width="478" height="166.731" rx="83.3656" transform="rotate(-45 -120 977.997)" fill="#475184"/>
<rect x="-133.31" y="1330.31" width="663.7" height="140.376" rx="70.188" transform="rotate(-45 -133.31 1330.31)" fill="#475184"/>
<rect x="263" y="1199" width="478" height="140.376" rx="70.188" transform="rotate(-45 263 1199)" fill="#475184"/>
<path d="M198 1004C154.274 1044.12 99 994 142.5 948.5L145.078 945.922L238.5 852.5L198 822L94 927L-83.5 1057L142.5 1191.5L360 974L294 908C291.167 928.5 252.5 954 198 1004Z" fill="#475184"/>
<path d="M356.5 1105C312.774 1145.12 257.5 1095 301 1049.5L303.578 1046.92L397 953.5L356.5 923L252.5 1028L75 1158L301 1292.5L518.5 1075L452.5 1009C449.667 1029.5 411 1055 356.5 1105Z" fill="#475184"/>
<rect x="-95.0522" y="1117.76" width="450.042" height="10" transform="rotate(-45 -95.0522 1117.76)" fill="#FAAE62"/>
<rect x="272" y="1334.23" width="450.042" height="10" transform="rotate(-45 272 1334.23)" fill="#FAAE62"/>
<rect x="-21" y="1272.68" width="709.187" height="50" rx="25" transform="rotate(-45 -21 1272.68)" fill="#FAAE62"/>
<circle cx="598.5" cy="965.5" r="37.5" fill="white"/>
<circle cx="108" cy="1036" r="25" fill="white"/>
<path d="M967.54 931.541C731.54 898.741 575.207 1101.87 526.54 1207.54C428.228 1421 567.54 1480.54 567.54 1480.54C798.499 1624.5 939.873 1444.54 1043.54 1280.54C1116.54 1177.87 1203.54 964.341 967.54 931.541Z" fill="#FAAE62"/>
<circle cx="0.5" cy="274.5" r="12.5" fill="#FAAE62"/>
<circle cx="35.5" cy="274.5" r="12.5" fill="#FAAE62"/>
<circle cx="70.5" cy="274.5" r="12.5" fill="#FAAE62"/>
<circle cx="105.5" cy="274.5" r="12.5" fill="#FAAE62"/>
<circle cx="0.5" cy="313.5" r="12.5" fill="#FAAE62"/>
<circle cx="35.5" cy="313.5" r="12.5" fill="#FAAE62"/>
<circle cx="70.5" cy="313.5" r="12.5" fill="#FAAE62"/>
<circle cx="105.5" cy="313.5" r="12.5" fill="#FAAE62"/>
<circle cx="1809.5" cy="830.5" r="12.5" fill="#FAAE62"/>
<circle cx="1844.5" cy="830.5" r="12.5" fill="#FAAE62"/>
<circle cx="1879.5" cy="830.5" r="12.5" fill="#FAAE62"/>
<circle cx="1914.5" cy="830.5" r="12.5" fill="#FAAE62"/>
<circle cx="1809.5" cy="869.5" r="12.5" fill="#FAAE62"/>
<circle cx="1844.5" cy="869.5" r="12.5" fill="#FAAE62"/>
<circle cx="1879.5" cy="869.5" r="12.5" fill="#FAAE62"/>
<circle cx="1914.5" cy="869.5" r="12.5" fill="#FAAE62"/>
<circle cx="108" cy="426" r="40" fill="#475184"/>
<circle cx="1677" cy="990" r="40" fill="#475184"/>
</g>
<defs>
<clipPath id="clip0_22_6">
<rect width="1920" height="2461" fill="white"/>
</clipPath>
<clipPath id="clip1_22_6">
<rect width="1122" height="440" fill="white" transform="translate(440 1108) rotate(90)"/>
</clipPath>
</defs>
</svg>
