<svg width="122" height="63" viewBox="0 0 122 63" fill="none" xmlns="http://www.w3.org/2000/svg">
<g clip-path="url(#clip0_11_9)">
<path d="M7.55397 22.2958C6.26846 22.2958 5.11789 21.9656 4.10226 21.3051C3.08664 20.6446 2.28408 19.6858 1.69459 18.4287C1.10511 17.1716 0.810364 15.6446 0.810364 13.8477C0.810364 12.0295 1.10866 10.4954 1.70525 9.24547C2.30894 7.98836 3.12215 7.04021 4.14488 6.40101C5.1676 5.7547 6.30752 5.43155 7.56462 5.43155C8.52343 5.43155 9.31179 5.5949 9.92969 5.9216C10.5476 6.2412 11.0376 6.62828 11.3999 7.08282C11.7621 7.53027 12.0426 7.95285 12.2415 8.35058H12.4013V0.190063H16.2685V22.0082H12.4759V19.4301H12.2415C12.0426 19.8278 11.755 20.2504 11.3786 20.6978C11.0021 21.1382 10.505 21.5146 9.88706 21.8271C9.26917 22.1396 8.49147 22.2958 7.55397 22.2958ZM8.62996 19.1318C9.44672 19.1318 10.1428 18.9116 10.718 18.4713C11.2933 18.0238 11.7301 17.4024 12.0284 16.6069C12.3267 15.8115 12.4759 14.8846 12.4759 13.8264C12.4759 12.7681 12.3267 11.8484 12.0284 11.0671C11.7372 10.2859 11.304 9.6787 10.7287 9.24547C10.1605 8.81223 9.46093 8.59561 8.62996 8.59561C7.77059 8.59561 7.05327 8.81933 6.47797 9.26677C5.90269 9.71422 5.46945 10.3321 5.17826 11.1204C4.88706 11.9088 4.74147 12.8108 4.74147 13.8264C4.74147 14.8491 4.88706 15.7618 5.17826 16.5643C5.47655 17.3598 5.91334 17.9883 6.48863 18.45C7.07101 18.9045 7.78479 19.1318 8.62996 19.1318ZM20.378 22.0082V5.64461H24.1174V8.37189H24.2878C24.5861 7.42728 25.0975 6.6993 25.8219 6.18794C26.5534 5.66947 27.388 5.41024 28.3255 5.41024C28.5385 5.41024 28.7765 5.42089 29.0392 5.4422C29.3091 5.4564 29.5328 5.48126 29.7104 5.51677V9.06436C29.5471 9.00754 29.2878 8.95782 28.9327 8.91521C28.5847 8.86549 28.2473 8.84064 27.9206 8.84064C27.2175 8.84064 26.5854 8.99333 26.0243 9.29873C25.4703 9.59702 25.0336 10.0125 24.714 10.5451C24.3944 11.0778 24.2346 11.6921 24.2346 12.3882V22.0082H20.378ZM38.843 22.3278C37.2024 22.3278 35.7855 21.9869 34.5923 21.3051C33.4063 20.6162 32.4936 19.6431 31.8544 18.386C31.2152 17.1218 30.8956 15.6339 30.8956 13.9223C30.8956 12.239 31.2152 10.7618 31.8544 9.49049C32.5007 8.21208 33.4027 7.21777 34.5604 6.50754C35.718 5.79021 37.0781 5.43155 38.6406 5.43155C39.6491 5.43155 40.6009 5.5949 41.4957 5.9216C42.3977 6.2412 43.1932 6.73836 43.8821 7.41308C44.5781 8.0878 45.125 8.94717 45.5227 9.9912C45.9205 11.0281 46.1193 12.2639 46.1193 13.6985V14.8811H32.7067V12.2816H42.4226C42.4155 11.543 42.2557 10.886 41.9432 10.3108C41.6307 9.72842 41.1939 9.27032 40.6328 8.93652C40.0788 8.60271 39.4325 8.43581 38.6939 8.43581C37.9055 8.43581 37.2131 8.62757 36.6165 9.01109C36.0199 9.38751 35.5547 9.88467 35.2209 10.5025C34.8942 11.1133 34.7273 11.7845 34.7202 12.516V14.7852C34.7202 15.7369 34.8942 16.5537 35.2422 17.2355C35.5902 17.9102 36.0767 18.4287 36.7017 18.7909C37.3267 19.146 38.0582 19.3235 38.8963 19.3235C39.4574 19.3235 39.9652 19.2454 40.4197 19.0892C40.8743 18.9258 41.2685 18.6879 41.6023 18.3754C41.9361 18.0629 42.1882 17.6758 42.3587 17.2142L45.9595 17.619C45.7322 18.5707 45.299 19.4017 44.6598 20.1119C44.0277 20.815 43.218 21.3619 42.2308 21.7525C41.2436 22.136 40.1143 22.3278 38.843 22.3278ZM54.0907 22.3385C53.0538 22.3385 52.1199 22.1538 51.2889 21.7845C50.465 21.4081 49.8116 20.8541 49.3287 20.1225C48.8528 19.391 48.6149 18.489 48.6149 17.4166C48.6149 16.4933 48.7853 15.7298 49.1262 15.1261C49.4672 14.5224 49.9324 14.0394 50.5218 13.6772C51.1113 13.315 51.7754 13.0416 52.514 12.8569C53.2598 12.6652 54.0304 12.5267 54.8258 12.4414C55.7846 12.342 56.5623 12.2532 57.1589 12.1751C57.7555 12.0899 58.1887 11.962 58.4586 11.7916C58.7356 11.614 58.8741 11.3406 58.8741 10.9713V10.9073C58.8741 10.1048 58.6362 9.48339 58.1603 9.04305C57.6845 8.60271 56.9991 8.38254 56.1042 8.38254C55.1596 8.38254 54.4103 8.58851 53.8564 9.00044C53.3095 9.41237 52.9402 9.89887 52.7484 10.4599L49.1475 9.94859C49.4316 8.95427 49.9004 8.12331 50.5538 7.45569C51.2072 6.78098 52.0062 6.27672 52.9508 5.94291C53.8954 5.602 54.9395 5.43155 56.0829 5.43155C56.8713 5.43155 57.6561 5.52388 58.4373 5.70853C59.2186 5.89319 59.9324 6.19859 60.5787 6.62473C61.225 7.04376 61.7434 7.61549 62.1341 8.33993C62.5318 9.06436 62.7306 9.9699 62.7306 11.0565V22.0082H59.0233V19.7603H58.8954C58.661 20.2149 58.3308 20.641 57.9047 21.0387C57.4856 21.4294 56.9565 21.7454 56.3173 21.9869C55.6852 22.2213 54.943 22.3385 54.0907 22.3385ZM55.0922 19.5046C55.8663 19.5046 56.5375 19.3519 57.1056 19.0466C57.6738 18.7341 58.1106 18.3221 58.416 17.8108C58.7285 17.2994 58.8848 16.7419 58.8848 16.1382V14.2099C58.764 14.3093 58.5581 14.4017 58.2669 14.4869C57.9828 14.5721 57.6632 14.6467 57.3081 14.7106C56.9529 14.7745 56.6014 14.8314 56.2534 14.8811C55.9054 14.9308 55.6035 14.9734 55.3478 15.0089C54.7725 15.087 54.2576 15.2149 53.8031 15.3924C53.3485 15.57 52.9899 15.8186 52.7271 16.1382C52.4643 16.4507 52.3329 16.8555 52.3329 17.3527C52.3329 18.0629 52.5922 18.5991 53.1106 18.9613C53.6291 19.3235 54.2896 19.5046 55.0922 19.5046ZM66.6085 22.0082V5.64461H70.2946V8.42515H70.4863C70.8272 7.48765 71.3919 6.75612 72.1802 6.23055C72.9686 5.69788 73.9096 5.43155 75.0034 5.43155C76.1113 5.43155 77.0453 5.70143 77.8052 6.2412C78.5723 6.77387 79.112 7.50185 79.4245 8.42515H79.595C79.9572 7.51606 80.568 6.79163 81.4274 6.25186C82.2939 5.70498 83.3201 5.43155 84.5062 5.43155C86.0119 5.43155 87.2406 5.9074 88.1923 6.8591C89.144 7.81081 89.6199 9.1993 89.6199 11.0245V22.0082H85.7527V11.6211C85.7527 10.6055 85.4828 9.86336 84.943 9.39461C84.4032 8.91876 83.7427 8.68083 82.9615 8.68083C82.0311 8.68083 81.3031 8.97202 80.7775 9.55441C80.2591 10.1296 79.9998 10.8789 79.9998 11.8022V22.0082H76.2179V11.4613C76.2179 10.6162 75.9622 9.94149 75.4508 9.43723C74.9466 8.93297 74.286 8.68083 73.4693 8.68083C72.9153 8.68083 72.411 8.82288 71.9565 9.10697C71.502 9.38396 71.1397 9.77814 70.8699 10.2894C70.6 10.7937 70.465 11.3832 70.465 12.0579V22.0082H66.6085ZM100.777 22.3278C99.136 22.3278 97.7191 21.9869 96.5259 21.3051C95.3398 20.6162 94.4272 19.6431 93.788 18.386C93.1488 17.1218 92.8292 15.6339 92.8292 13.9223C92.8292 12.239 93.1488 10.7618 93.788 9.49049C94.4343 8.21208 95.3363 7.21777 96.494 6.50754C97.6516 5.79021 99.0117 5.43155 100.574 5.43155C101.583 5.43155 102.534 5.5949 103.429 5.9216C104.331 6.2412 105.127 6.73836 105.816 7.41308C106.512 8.0878 107.059 8.94717 107.456 9.9912C107.854 11.0281 108.053 12.2639 108.053 13.6985V14.8811H94.6403V12.2816H104.356C104.349 11.543 104.189 10.886 103.877 10.3108C103.564 9.72842 103.127 9.27032 102.566 8.93652C102.012 8.60271 101.366 8.43581 100.627 8.43581C99.8391 8.43581 99.1467 8.62757 98.5501 9.01109C97.9535 9.38751 97.4883 9.88467 97.1545 10.5025C96.8278 11.1133 96.6609 11.7845 96.6538 12.516V14.7852C96.6538 15.7369 96.8278 16.5537 97.1758 17.2355C97.5238 17.9102 98.0103 18.4287 98.6353 18.7909C99.2603 19.146 99.9918 19.3235 100.83 19.3235C101.391 19.3235 101.899 19.2454 102.353 19.0892C102.808 18.9258 103.202 18.6879 103.536 18.3754C103.87 18.0629 104.122 17.6758 104.292 17.2142L107.893 17.619C107.666 18.5707 107.233 19.4017 106.593 20.1119C105.961 20.815 105.152 21.3619 104.164 21.7525C103.177 22.136 102.048 22.3278 100.777 22.3278ZM111.316 22.0082V5.64461H115.055V8.37189H115.225C115.524 7.42728 116.035 6.6993 116.759 6.18794C117.491 5.66947 118.325 5.41024 119.263 5.41024C119.476 5.41024 119.714 5.42089 119.977 5.4422C120.247 5.4564 120.47 5.48126 120.648 5.51677V9.06436C120.485 9.00754 120.225 8.95782 119.87 8.91521C119.522 8.86549 119.185 8.84064 118.858 8.84064C118.155 8.84064 117.523 8.99333 116.962 9.29873C116.408 9.59702 115.971 10.0125 115.651 10.5451C115.332 11.0778 115.172 11.6921 115.172 12.3882V22.0082H111.316ZM7.55397 58.2958C6.26846 58.2958 5.11789 57.9656 4.10226 57.3051C3.08664 56.6446 2.28408 55.6858 1.69459 54.4287C1.10511 53.1716 0.810364 51.6446 0.810364 49.8477C0.810364 48.0295 1.10866 46.4954 1.70525 45.2454C2.30894 43.9883 3.12215 43.0402 4.14488 42.401C5.1676 41.7546 6.30752 41.4315 7.56462 41.4315C8.52343 41.4315 9.31179 41.5948 9.92969 41.9216C10.5476 42.2412 11.0376 42.6282 11.3999 43.0828C11.7621 43.5302 12.0426 43.9528 12.2415 44.3505H12.4013V36.19H16.2685V58.0082H12.4759V55.4301H12.2415C12.0426 55.8279 11.755 56.2505 11.3786 56.6978C11.0021 57.1382 10.505 57.5146 9.88706 57.8271C9.26917 58.1396 8.49147 58.2958 7.55397 58.2958ZM8.62996 55.1318C9.44672 55.1318 10.1428 54.9116 10.718 54.4713C11.2933 54.0238 11.7301 53.4025 12.0284 52.6069C12.3267 51.8116 12.4759 50.8846 12.4759 49.8264C12.4759 48.7681 12.3267 47.8484 12.0284 47.0671C11.7372 46.2859 11.304 45.6787 10.7287 45.2454C10.1605 44.8122 9.46093 44.5956 8.62996 44.5956C7.77059 44.5956 7.05327 44.8193 6.47797 45.2667C5.90269 45.7142 5.46945 46.3321 5.17826 47.1204C4.88706 47.9088 4.74147 48.8108 4.74147 49.8264C4.74147 50.8491 4.88706 51.7618 5.17826 52.5643C5.47655 53.3598 5.91334 53.9883 6.48863 54.45C7.07101 54.9045 7.78479 55.1318 8.62996 55.1318ZM20.378 58.0082V41.6446H24.1174V44.3718H24.2878C24.5861 43.4272 25.0975 42.6993 25.8219 42.1879C26.5534 41.6694 27.388 41.4102 28.3255 41.4102C28.5385 41.4102 28.7765 41.4208 29.0392 41.4421C29.3091 41.4564 29.5328 41.4812 29.7104 41.5167V45.0643C29.5471 45.0075 29.2878 44.9578 28.9327 44.9152C28.5847 44.8654 28.2473 44.8406 27.9206 44.8406C27.2175 44.8406 26.5854 44.9933 26.0243 45.2987C25.4703 45.597 25.0336 46.0125 24.714 46.5451C24.3944 47.0778 24.2346 47.6922 24.2346 48.3882V58.0082H20.378ZM38.843 58.3278C37.2024 58.3278 35.7855 57.9869 34.5923 57.3051C33.4063 56.6162 32.4936 55.6431 31.8544 54.386C31.2152 53.1218 30.8956 51.6339 30.8956 49.9223C30.8956 48.239 31.2152 46.7618 31.8544 45.4904C32.5007 44.212 33.4027 43.2177 34.5604 42.5075C35.718 41.7902 37.0781 41.4315 38.6406 41.4315C39.6491 41.4315 40.6009 41.5948 41.4957 41.9216C42.3977 42.2412 43.1932 42.7383 43.8821 43.413C44.5781 44.0877 45.125 44.9471 45.5227 45.9912C45.9205 47.0281 46.1193 48.2639 46.1193 49.6985V50.8811H32.7067V48.2816H42.4226C42.4155 47.543 42.2557 46.886 41.9432 46.3108C41.6307 45.7284 41.1939 45.2703 40.6328 44.9365C40.0788 44.6027 39.4325 44.4358 38.6939 44.4358C37.9055 44.4358 37.2131 44.6275 36.6165 45.011C36.0199 45.3875 35.5547 45.8846 35.2209 46.5025C34.8942 47.1133 34.7273 47.7845 34.7202 48.516V50.7852C34.7202 51.7369 34.8942 52.5537 35.2422 53.2355C35.5902 53.9102 36.0767 54.4287 36.7017 54.7909C37.3267 55.146 38.0582 55.3235 38.8963 55.3235C39.4574 55.3235 39.9652 55.2454 40.4197 55.0892C40.8743 54.9258 41.2685 54.6879 41.6023 54.3754C41.9361 54.0629 42.1882 53.6758 42.3587 53.2142L45.9595 53.619C45.7322 54.5707 45.299 55.4017 44.6598 56.1119C44.0277 56.815 43.218 57.3619 42.2308 57.7525C41.2436 58.136 40.1143 58.3278 38.843 58.3278ZM54.0907 58.3385C53.0538 58.3385 52.1199 58.1538 51.2889 57.7845C50.465 57.4081 49.8116 56.8541 49.3287 56.1225C48.8528 55.391 48.6149 54.489 48.6149 53.4166C48.6149 52.4933 48.7853 51.7298 49.1262 51.1261C49.4672 50.5224 49.9324 50.0394 50.5218 49.6772C51.1113 49.315 51.7754 49.0416 52.514 48.8569C53.2598 48.6652 54.0304 48.5267 54.8258 48.4414C55.7846 48.342 56.5623 48.2532 57.1589 48.1751C57.7555 48.0899 58.1887 47.962 58.4586 47.7916C58.7356 47.614 58.8741 47.3406 58.8741 46.9713V46.9073C58.8741 46.1048 58.6362 45.4833 58.1603 45.043C57.6845 44.6027 56.9991 44.3825 56.1042 44.3825C55.1596 44.3825 54.4103 44.5885 53.8564 45.0004C53.3095 45.4123 52.9402 45.8988 52.7484 46.4599L49.1475 45.9485C49.4316 44.9542 49.9004 44.1233 50.5538 43.4556C51.2072 42.7809 52.0062 42.2767 52.9508 41.9429C53.8954 41.602 54.9395 41.4315 56.0829 41.4315C56.8713 41.4315 57.6561 41.5238 58.4373 41.7085C59.2186 41.8931 59.9324 42.1985 60.5787 42.6247C61.225 43.0437 61.7434 43.6154 62.1341 44.3399C62.5318 45.0643 62.7306 45.9698 62.7306 47.0565V58.0082H59.0233V55.7603H58.8954C58.661 56.215 58.3308 56.641 57.9047 57.0387C57.4856 57.4294 56.9565 57.7454 56.3173 57.9869C55.6852 58.2213 54.943 58.3385 54.0907 58.3385ZM55.0922 55.5046C55.8663 55.5046 56.5375 55.3519 57.1056 55.0466C57.6738 54.7341 58.1106 54.3221 58.416 53.8108C58.7285 53.2994 58.8848 52.7419 58.8848 52.1382V50.2099C58.764 50.3093 58.5581 50.4017 58.2669 50.4869C57.9828 50.5721 57.6632 50.6467 57.3081 50.7106C56.9529 50.7745 56.6014 50.8314 56.2534 50.8811C55.9054 50.9308 55.6035 50.9734 55.3478 51.0089C54.7725 51.087 54.2576 51.2149 53.8031 51.3924C53.3485 51.57 52.9899 51.8186 52.7271 52.1382C52.4643 52.4507 52.3329 52.8555 52.3329 53.3527C52.3329 54.063 52.5922 54.5991 53.1106 54.9613C53.6291 55.3235 54.2896 55.5046 55.0922 55.5046ZM66.6085 58.0082V41.6446H70.2946V44.4251H70.4863C70.8272 43.4876 71.3919 42.7561 72.1802 42.2305C72.9686 41.6978 73.9096 41.4315 75.0034 41.4315C76.1113 41.4315 77.0453 41.7015 77.8052 42.2412C78.5723 42.7738 79.112 43.5018 79.4245 44.4251H79.595C79.9572 43.516 80.568 42.7916 81.4274 42.2518C82.2939 41.7049 83.3201 41.4315 84.5062 41.4315C86.0119 41.4315 87.2406 41.9073 88.1923 42.8591C89.144 43.8108 89.6199 45.1993 89.6199 47.0245V58.0082H85.7527V47.6211C85.7527 46.6055 85.4828 45.8633 84.943 45.3946C84.4032 44.9187 83.7427 44.6808 82.9615 44.6808C82.0311 44.6808 81.3031 44.972 80.7775 45.5544C80.2591 46.1296 79.9998 46.8789 79.9998 47.8022V58.0082H76.2179V47.4613C76.2179 46.6162 75.9622 45.9414 75.4508 45.4372C74.9466 44.9329 74.286 44.6808 73.4693 44.6808C72.9153 44.6808 72.411 44.8228 71.9565 45.1069C71.502 45.3839 71.1397 45.7781 70.8699 46.2894C70.6 46.7937 70.465 47.3832 70.465 48.0579V58.0082H66.6085ZM105.624 58.0082V61.087H91.5295V58.0082H105.624ZM119.657 58.0082V61.087H105.563V58.0082H119.657Z" fill="white"/>
</g>
<defs>
<clipPath id="clip0_11_9">
<rect width="121" height="62" fill="white" transform="translate(0.5 0.00830078)"/>
</clipPath>
</defs>
</svg>
