<svg width="1920" height="1080" viewBox="0 0 1920 1080" fill="none" xmlns="http://www.w3.org/2000/svg">
<g clip-path="url(#clip0_22_6)">
<rect width="1920" height="1080" fill="white"/>
<circle cx="324" r="189" fill="#FAAE62"/>
<rect x="-234" y="1185.23" width="450.042" height="10" transform="rotate(-45 -234 1185.23)" fill="#FAAE62"/>
<circle cx="108" cy="1036" r="25" fill="white"/>
<rect x="-120" y="977.997" width="478" height="166.731" rx="83.3656" transform="rotate(-45 -120 977.997)" fill="#475184"/>
<rect x="-2" y="1199" width="478" height="140.376" rx="70.188" transform="rotate(-45 -2 1199)" fill="#475184"/>
<rect x="263" y="1199" width="478" height="140.376" rx="70.188" transform="rotate(-45 263 1199)" fill="#475184"/>
<path d="M198 1004C154.274 1044.12 99 994 142.5 948.5L145.078 945.922L238.5 852.5L198 822L94 927L-83.5 1057L142.5 1191.5L360 974L294 908C291.167 928.5 252.5 954 198 1004Z" fill="#475184"/>
<path d="M356.5 1105C312.774 1145.12 257.5 1095 301 1049.5L303.578 1046.92L397 953.5L356.5 923L252.5 1028L75 1158L301 1292.5L518.5 1075L452.5 1009C449.667 1029.5 411 1055 356.5 1105Z" fill="#475184"/>
<rect x="-95.0522" y="1117.76" width="450.042" height="10" transform="rotate(-45 -95.0522 1117.76)" fill="#FAAE62"/>
<rect x="272" y="1334.23" width="450.042" height="10" transform="rotate(-45 272 1334.23)" fill="#FAAE62"/>
<rect x="-21" y="1272.68" width="709.187" height="50" rx="25" transform="rotate(-45 -21 1272.68)" fill="#FAAE62"/>
<circle cx="598.5" cy="965.5" r="37.5" fill="white"/>
<circle cx="108" cy="1036" r="25" fill="white"/>
<rect x="2133.26" y="207.302" width="478" height="166.731" rx="83.3656" transform="rotate(135 2133.26 207.302)" fill="#475184"/>
<rect x="2015.26" y="-13.6984" width="478" height="140.376" rx="70.188" transform="rotate(135 2015.26 -13.6984)" fill="#475184"/>
<rect x="1750.26" y="-13.6984" width="478" height="140.376" rx="70.188" transform="rotate(135 1750.26 -13.6984)" fill="#475184"/>
<path d="M1815.26 181.299C1858.98 141.183 1914.26 191.299 1870.76 236.799L1868.18 239.377L1774.76 332.799L1815.26 363.299L1919.26 258.299L2096.76 128.299L1870.76 -6.20131L1653.26 211.299L1719.26 277.299C1722.09 256.799 1760.76 231.299 1815.26 181.299Z" fill="#475184"/>
<path d="M1656.76 80.2987C1700.48 40.183 1755.76 90.2987 1712.26 135.799L1709.68 138.377L1616.26 231.799L1656.76 262.299L1760.76 157.299L1938.26 27.2987L1712.26 -107.201L1494.76 110.299L1560.76 176.299C1563.59 155.799 1602.26 130.299 1656.76 80.2987Z" fill="#475184"/>
<rect x="2108.31" y="67.5355" width="450.042" height="10" transform="rotate(135 2108.31 67.5355)" fill="#FAAE62"/>
<rect x="1741.26" y="-148.929" width="450.042" height="10" transform="rotate(135 1741.26 -148.929)" fill="#FAAE62"/>
<circle cx="1414.76" cy="219.799" r="37.5" transform="rotate(-180 1414.76 219.799)" fill="white"/>
<circle cx="1787.5" cy="106.5" r="37.5" transform="rotate(-180 1787.5 106.5)" fill="white"/>
<path d="M967.54 931.541C731.54 898.741 575.207 1101.87 526.54 1207.54C485.207 1201.21 435.54 1246.94 567.54 1480.54C699.54 1714.14 939.874 1444.54 1043.54 1280.54C1116.54 1177.87 1203.54 964.341 967.54 931.541Z" fill="#FAAE62"/>
<circle cx="0.5" cy="274.5" r="12.5" fill="#FAAE62"/>
<circle cx="35.5" cy="274.5" r="12.5" fill="#FAAE62"/>
<circle cx="70.5" cy="274.5" r="12.5" fill="#FAAE62"/>
<circle cx="105.5" cy="274.5" r="12.5" fill="#FAAE62"/>
<circle cx="0.5" cy="313.5" r="12.5" fill="#FAAE62"/>
<circle cx="35.5" cy="313.5" r="12.5" fill="#FAAE62"/>
<circle cx="70.5" cy="313.5" r="12.5" fill="#FAAE62"/>
<circle cx="105.5" cy="313.5" r="12.5" fill="#FAAE62"/>
<circle cx="1809.5" cy="830.5" r="12.5" fill="#FAAE62"/>
<circle cx="1844.5" cy="830.5" r="12.5" fill="#FAAE62"/>
<circle cx="1879.5" cy="830.5" r="12.5" fill="#FAAE62"/>
<circle cx="1914.5" cy="830.5" r="12.5" fill="#FAAE62"/>
<circle cx="1809.5" cy="869.5" r="12.5" fill="#FAAE62"/>
<circle cx="1844.5" cy="869.5" r="12.5" fill="#FAAE62"/>
<circle cx="1879.5" cy="869.5" r="12.5" fill="#FAAE62"/>
<circle cx="1914.5" cy="869.5" r="12.5" fill="#FAAE62"/>
<circle cx="108" cy="426" r="40" fill="#475184"/>
<circle cx="1677" cy="990" r="40" fill="#475184"/>
</g>
<defs>
<clipPath id="clip0_22_6">
<rect width="1920" height="1080" fill="white"/>
</clipPath>
</defs>
</svg>
