<svg width="1920" height="2461" viewBox="0 0 1920 2461" fill="none" xmlns="http://www.w3.org/2000/svg">
<g clip-path="url(#clip0_22_6)">
<rect width="1920" height="2461" fill="white"/>
<circle cx="324" r="189" fill="#FAAE62"/>
<rect x="-234" y="1185.23" width="450.042" height="10" transform="rotate(-45 -234 1185.23)" fill="#FAAE62"/>
<circle cx="108" cy="1036" r="25" fill="white"/>
<rect x="2133.26" y="207.302" width="478" height="166.731" rx="83.3656" transform="rotate(135 2133.26 207.302)" fill="#475184"/>
<rect x="2015.26" y="-13.6984" width="478" height="140.376" rx="70.188" transform="rotate(135 2015.26 -13.6984)" fill="#475184"/>
<rect x="1750.26" y="-13.6984" width="478" height="140.376" rx="70.188" transform="rotate(135 1750.26 -13.6984)" fill="#475184"/>
<path d="M1815.26 181.299C1858.98 141.183 1914.26 191.299 1870.76 236.799L1868.18 239.377L1774.76 332.799L1815.26 363.299L1919.26 258.299L2096.76 128.299L1870.76 -6.20131L1653.26 211.299L1719.26 277.299C1722.09 256.799 1760.76 231.299 1815.26 181.299Z" fill="#475184"/>
<path d="M1656.76 80.2987C1700.48 40.183 1755.76 90.2987 1712.26 135.799L1709.68 138.377L1616.26 231.799L1656.76 262.299L1760.76 157.299L1938.26 27.2987L1712.26 -107.201L1494.76 110.299L1560.76 176.299C1563.59 155.799 1602.26 130.299 1656.76 80.2987Z" fill="#475184"/>
<rect x="2108.31" y="67.5355" width="450.042" height="10" transform="rotate(135 2108.31 67.5355)" fill="#FAAE62"/>
<rect x="1741.26" y="-148.929" width="450.042" height="10" transform="rotate(135 1741.26 -148.929)" fill="#FAAE62"/>
<circle cx="1414.76" cy="219.799" r="37.5" transform="rotate(-180 1414.76 219.799)" fill="white"/>
<circle cx="1787.5" cy="106.5" r="37.5" transform="rotate(-180 1787.5 106.5)" fill="white"/>
<rect x="-120" y="977.997" width="478" height="166.731" rx="83.3656" transform="rotate(-45 -120 977.997)" fill="#475184"/>
<rect x="-133.31" y="1330.31" width="663.7" height="140.376" rx="70.188" transform="rotate(-45 -133.31 1330.31)" fill="#475184"/>
<rect x="-146.697" y="1608.69" width="1057.4" height="140.376" rx="70.188" transform="rotate(-45 -146.697 1608.69)" fill="#475184"/>
<path d="M198 1004C154.274 1044.12 99 994 142.5 948.5L145.078 945.922L238.5 852.5L198 822L94 927L-83.5 1057L142.5 1191.5L360 974L294 908C291.167 928.5 252.5 954 198 1004Z" fill="#475184"/>
<path d="M356.5 1105C312.774 1145.12 257.5 1095 301 1049.5L303.578 1046.92L397 953.5L356.5 923L252.5 1028L75 1158L292 1271.5L518.5 1075L452.5 1009C449.667 1029.5 411 1055 356.5 1105Z" fill="#475184"/>
<rect x="-95.0522" y="1117.76" width="450.042" height="10" transform="rotate(-45 -95.0522 1117.76)" fill="#FAAE62"/>
<rect x="-71.3545" y="1677.58" width="935.618" height="10" transform="rotate(-45 -71.3545 1677.58)" fill="#FAAE62"/>
<rect x="-21" y="1272.68" width="709.187" height="50" rx="25" transform="rotate(-45 -21 1272.68)" fill="#FAAE62"/>
<circle cx="598.5" cy="965.5" r="37.5" fill="white"/>
<circle cx="75" cy="1462" r="25" fill="white"/>
<circle cx="141" cy="1397" r="25" fill="white"/>
<circle cx="108" cy="1036" r="25" fill="white"/>
<circle cx="0.5" cy="274.5" r="12.5" fill="#FAAE62"/>
<circle cx="35.5" cy="274.5" r="12.5" fill="#FAAE62"/>
<circle cx="70.5" cy="274.5" r="12.5" fill="#FAAE62"/>
<circle cx="105.5" cy="274.5" r="12.5" fill="#FAAE62"/>
<circle cx="0.5" cy="313.5" r="12.5" fill="#FAAE62"/>
<circle cx="35.5" cy="313.5" r="12.5" fill="#FAAE62"/>
<circle cx="70.5" cy="313.5" r="12.5" fill="#FAAE62"/>
<circle cx="105.5" cy="313.5" r="12.5" fill="#FAAE62"/>
<circle cx="1809.5" cy="830.5" r="12.5" fill="#FAAE62"/>
<circle cx="1844.5" cy="830.5" r="12.5" fill="#FAAE62"/>
<circle cx="1879.5" cy="830.5" r="12.5" fill="#FAAE62"/>
<circle cx="1914.5" cy="830.5" r="12.5" fill="#FAAE62"/>
<circle cx="1809.5" cy="869.5" r="12.5" fill="#FAAE62"/>
<circle cx="1844.5" cy="869.5" r="12.5" fill="#FAAE62"/>
<circle cx="1879.5" cy="869.5" r="12.5" fill="#FAAE62"/>
<circle cx="1914.5" cy="869.5" r="12.5" fill="#FAAE62"/>
<circle cx="108" cy="426" r="40" fill="#475184"/>
<circle cx="1677" cy="990" r="40" fill="#475184"/>
<circle cx="104.5" cy="2159.5" r="12.5" transform="rotate(-180 104.5 2159.5)" fill="#FAAE62"/>
<circle cx="69.5" cy="2159.5" r="12.5" transform="rotate(-180 69.5 2159.5)" fill="#FAAE62"/>
<circle cx="34.5" cy="2159.5" r="12.5" transform="rotate(-180 34.5 2159.5)" fill="#FAAE62"/>
<circle cx="-0.499999" cy="2159.5" r="12.5" transform="rotate(-180 -0.499999 2159.5)" fill="#FAAE62"/>
<circle cx="104.5" cy="2120.5" r="12.5" transform="rotate(-180 104.5 2120.5)" fill="#FAAE62"/>
<circle cx="69.5" cy="2120.5" r="12.5" transform="rotate(-180 69.5 2120.5)" fill="#FAAE62"/>
<circle cx="34.5" cy="2120.5" r="12.5" transform="rotate(-180 34.5 2120.5)" fill="#FAAE62"/>
<circle cx="-0.499999" cy="2120.5" r="12.5" transform="rotate(-180 -0.499999 2120.5)" fill="#FAAE62"/>
<circle cx="237" cy="2000" r="40" transform="rotate(-180 237 2000)" fill="#475184"/>
<g clip-path="url(#clip1_22_6)">
<path d="M1666.33 1406.87L1816.89 1256.21C1839.17 1233.93 1875.28 1233.93 1897.55 1256.21C1919.82 1278.5 1919.82 1314.63 1897.55 1336.91L1746.98 1487.57C1724.71 1509.85 1688.6 1509.85 1666.33 1487.57C1644.05 1465.28 1644.05 1429.15 1666.33 1406.87Z" fill="#475184"/>
<path d="M1811.14 1494.02L1974.45 1330.6C1993.2 1311.84 2023.61 1311.84 2042.36 1330.6C2061.11 1349.36 2061.11 1379.78 2042.36 1398.55L1879.04 1561.96C1860.29 1580.72 1829.89 1580.72 1811.14 1561.96C1792.38 1543.2 1792.38 1512.78 1811.14 1494.02Z" fill="#475184"/>
<path d="M1811.14 1675.41L1974.45 1511.99C1993.2 1493.23 2023.61 1493.23 2042.36 1511.99C2061.11 1530.76 2061.11 1561.17 2042.36 1579.94L1879.04 1743.35C1860.29 1762.11 1829.89 1762.11 1811.14 1743.35C1792.38 1724.59 1792.38 1694.17 1811.14 1675.41Z" fill="#475184"/>
<path d="M1875.01 1433.53C1902.45 1403.6 1868.17 1365.76 1837.04 1395.54L1835.28 1397.3L1771.37 1461.25L1750.5 1433.53L1822.33 1362.34L1911.27 1240.84L2003.28 1395.54L1854.49 1544.42L1809.34 1499.24C1823.36 1497.3 1840.8 1470.83 1875.01 1433.53Z" fill="#475184"/>
<path d="M1944.1 1542.02C1971.55 1512.09 1937.26 1474.26 1906.14 1504.03L1904.37 1505.8L1840.46 1569.74L1819.6 1542.02L1891.43 1470.83L1980.36 1349.34L2072.37 1504.03L1923.58 1652.91L1878.43 1607.73C1892.45 1605.79 1909.9 1579.33 1944.1 1542.02Z" fill="#475184"/>
<path d="M1883.22 1702.01L2100.92 1484.18L2105.75 1489.02L1888.06 1706.85L1883.22 1702.01Z" fill="#FAAE62"/>
<path d="M1727.85 1614.78L2046.72 1295.73C2053.39 1289.04 2064.22 1289.04 2070.9 1295.73C2077.58 1302.41 2077.58 1313.24 2070.9 1319.93L1752.04 1638.98C1745.36 1645.66 1734.53 1645.66 1727.85 1638.98C1721.17 1632.3 1721.17 1621.46 1727.85 1614.78Z" fill="#FAAE62"/>
<path d="M1874.32 1707.67C1874.32 1721.84 1862.84 1733.34 1848.67 1733.34C1834.5 1733.34 1823.02 1721.84 1823.02 1707.67C1823.02 1693.49 1834.5 1682 1848.67 1682C1862.84 1682 1874.32 1693.49 1874.32 1707.67Z" fill="white"/>
<path d="M1914 1371.93C1914 1381.38 1906.35 1389.04 1896.9 1389.04C1887.45 1389.04 1879.8 1381.38 1879.8 1371.93C1879.8 1362.47 1887.45 1354.81 1896.9 1354.81C1906.35 1354.81 1914 1362.47 1914 1371.93Z" fill="white"/>
<path d="M1825.44 1960.27C1803 1798.73 1941.96 1691.72 2014.25 1658.41C2009.92 1630.12 2041.2 1596.12 2201.01 1686.48C2360.81 1776.83 2176.38 1941.34 2064.19 2012.29C1993.95 2062.26 1847.88 2121.81 1825.44 1960.27Z" fill="#FAAE62"/>
</g>
<rect x="23.6348" y="1062" width="84.1641" height="230" rx="42.082" transform="rotate(45 23.6348 1062)" fill="white"/>
<path d="M1724.84 1348.48L1940.82 1132.38C1972.76 1100.42 2016.71 1092.57 2038.98 1114.85C2061.26 1137.14 2053.41 1181.12 2021.47 1213.08L1805.49 1429.18C1773.55 1461.14 1729.6 1468.99 1707.33 1446.71C1685.05 1424.42 1692.9 1380.44 1724.84 1348.48Z" fill="#475184"/>
<path d="M1733.08 1450.76L1950.78 1232.94L1955.75 1237.91L1738.05 1455.73L1733.08 1450.76Z" fill="#FAAE62"/>
<rect x="212.635" y="1182" width="48.9598" height="230" rx="24.4799" transform="rotate(45 212.635 1182)" fill="white"/>
<rect x="433.635" y="960" width="48.9598" height="230" rx="24.4799" transform="rotate(45 433.635 960)" fill="white"/>
</g>
<defs>
<clipPath id="clip0_22_6">
<rect width="1920" height="2461" fill="white"/>
</clipPath>
<clipPath id="clip1_22_6">
<rect width="768" height="301" fill="white" transform="matrix(-4.37114e-08 1 1 4.37114e-08 1626 1298)"/>
</clipPath>
</defs>
</svg>
